HIERARCHY
ROOT Hip
{
	OFFSET 0 0 0
	CHANNELS 6 Xposition Yposition Zposition Zrotation Yrotation Xrotation
	JOINT ShoulderCenter
	{
		OFFSET 0 0.4363 0
		CHANNELS 3 Zrotation Yrotation Xrotation
		JOINT Head
		{
			OFFSET 0 0.1849 0
			CHANNELS 3 Zrotation Yrotation Xrotation
			End Site
			{
				OFFSET 0.0 0.0891 0.0
			}
		}
		JOINT ShoulderLeft
		{
			OFFSET -0.14 0 0
			CHANNELS 3 Zrotation Yrotation Xrotation
			JOINT ElbowLeft
			{
				OFFSET -0.25 0 0
				CHANNELS 3 Zrotation Yrotation Xrotation
				JOINT WristLeft
				{
					OFFSET -0.23 0 0
					CHANNELS 3 Zrotation Yrotation Xrotation
					End Site
					{
						OFFSET -0.0832 0.0 0.0
					}
				}
			}
		}
		JOINT ShoulderRight
		{
			OFFSET 0.14 0 0
			CHANNELS 3 Zrotation Yrotation Xrotation
			JOINT ElbowRight
			{
				OFFSET 0.25 0 0
				CHANNELS 3 Zrotation Yrotation Xrotation
				JOINT WristRight
				{
					OFFSET 0.23 0 0
					CHANNELS 3 Zrotation Yrotation Xrotation
					End Site
					{
						OFFSET 0.0832 0.0 0.0
					}
				}
			}
		}
	}
	JOINT HipLeft
	{
		OFFSET -0.0952 0 0
		CHANNELS 3 Zrotation Yrotation Xrotation
		JOINT KneeLeft
		{
			OFFSET 0 -0.3732 0
			CHANNELS 3 Zrotation Yrotation Xrotation
			JOINT AnkleLeft
			{
				OFFSET 0 -0.346 0
				CHANNELS 3 Zrotation Yrotation Xrotation
				End Site
				{
					OFFSET 0.0 0.0 0.0891
				}
			}
		}
	}
	JOINT HipRight
	{
		OFFSET 0.0952 0 0
		CHANNELS 3 Zrotation Yrotation Xrotation
		JOINT KneeRight
		{
			OFFSET 0 -0.3732 0
			CHANNELS 3 Zrotation Yrotation Xrotation
			JOINT AnkleRight
			{
				OFFSET 0 -0.346 0
				CHANNELS 3 Zrotation Yrotation Xrotation
				End Site
				{
					OFFSET 0.0 0.0 0.0891
				}
			}
		}
	}
}
MOTION
Frames: 10
Frame Time: 0.033333
1.15795e-06 -1.57504e-05 -0.00237176 17.6907 -7.04708 -2.04948 -15.4445 1.40256 -14.781 0 0 0 -11.2783 19.0177 -61.9499 -1.11345e-05 49.936 -1.1777e-05 0 0 0 114.445 -8.38972 -62.8559 3.61391e-06 -37.207 5.99029e-06 0 0 0 -24.6835 -2.84323 -9.00735 -1.36265 0.760954 2.19176 0 0 0 -4.83412 0.408259 -3.73778 -1.73051 0.219562 -17.6071 -7.47052e-07 2.13443e-07 1.70755e-06 
1.25059e-06 -1.59449e-05 -0.0023719 17.6977 -7.00933 -2.08673 -15.4351 1.47238 -14.7017 0 0 0 -11.3859 19.2289 -62.4985 1.42482e-06 49.6974 -9.86712e-07 0 0 0 114.237 -8.33794 -63.7321 -2.11806e-06 -37.0142 4.31032e-06 0 0 0 -24.7024 -2.82971 -8.9447 -1.07706 0.754534 2.20987 0 0 0 -4.80059 0.413583 -3.7256 -1.75896 0.227831 -17.4548 0 0 0 
1.80676e-06 -1.64497e-05 -0.00237229 17.7986 -6.96721 -2.28304 -15.4877 1.77319 -14.3511 0 0 0 -11.6235 18.9478 -62.6165 -1.70678e-06 49.6182 -5.72701e-06 0 0 0 115.366 -8.25943 -63.5864 -1.96016e-06 -35.8623 -2.95515e-06 0 0 0 -24.8121 -2.8055 -8.76461 0.516573 0.570286 1.83585 0 0 0 -4.96728 0.386228 -3.67874 -1.63608 0.244291 -17.3238 0 0 0 
1.80676e-06 -1.65226e-05 -0.00237231 17.7923 -6.91076 -2.27889 -15.4786 1.72164 -14.3454 0 0 0 -11.5186 18.9422 -62.804 -8.8147e-08 49.708 1.84101e-06 0 0 0 115.472 -8.25754 -63.3948 -8.67967e-06 -35.6411 -4.38425e-06 0 0 0 -24.8214 -2.79564 -8.72896 0.520877 0.565801 1.82096 5.33609e-08 -2.66804e-08 5.33609e-08 -4.92422 0.405857 -3.69842 -1.7432 0.223231 -17.217 0 0 0 
1.80676e-06 -1.67285e-05 -0.00237234 17.7809 -6.8968 -2.27212 -15.4323 1.72229 -14.3418 -5.33609e-08 -4.26887e-07 -6.67011e-09 -11.4704 18.4096 -61.8603 1.56344e-05 50.078 1.53132e-05 0 0 0 115.433 -8.25153 -63.581 -7.50858e-07 -34.639 -1.04977e-05 0 0 0 -24.8269 -2.76617 -8.72711 0.531537 0.558849 1.81928 0 0 0 -4.89959 0.421749 -3.71058 -1.77706 0.278103 -17.1909 0 0 -1.70755e-06 
1.76478e-06 -1.67285e-05 -0.00237234 17.7565 -6.80765 -2.26275 -15.4023 1.63179 -14.3432 0 0 0 -8.31476 16.4518 -60.4381 -1.11031e-05 55.3707 -1.93239e-05 0 0 0 115.404 -8.36643 -63.0403 -9.98265e-07 -34.6035 -6.84293e-06 0 0 0 -24.8211 -2.75584 -8.69361 0.551626 0.585613 1.90926 0 0 0 -4.87705 0.426841 -3.74563 -1.80905 0.269965 -16.9836 1.06722e-07 8.53774e-07 7.95139e-16 
1.76478e-06 -1.67996e-05 -0.00237234 17.699 -6.66711 -2.19453 -15.3351 1.43301 -14.4152 0 0 0 -8.46773 16.6753 -60.7463 -1.63222e-06 55.8285 -5.81647e-06 0 0 0 114.998 -8.52452 -62.2593 -5.27784e-08 -34.0074 -7.12628e-06 0 0 0 -24.8128 -2.69757 -8.67817 -1.71846 0.725727 2.07098 0 0 0 -4.85738 0.429193 -3.81062 -1.80573 0.273457 -16.9439 0 0 0 
1.76478e-06 -1.67996e-05 -0.00237234 17.6957 -6.58268 -2.19415 -15.5404 0.409723 -14.4717 -1.60083e-07 4.13547e-07 1.70755e-06 -10.1968 18.2473 -61.8984 -3.75742e-06 52.6482 -5.66921e-06 0 0 0 114.429 -8.94462 -62.3495 -3.75549e-06 -35.227 4.77536e-06 0 0 0 -24.8316 -2.68463 -8.62664 -1.70971 0.717226 2.04593 8.53774e-07 8.53774e-07 6.36111e-15 -4.86866 0.43125 -3.78746 -1.8289 0.262811 -16.9287 0 0 0 
2.34726e-06 -1.70418e-05 -0.00237247 17.7345 -6.48995 -2.234 -15.1923 -0.92229 -14.4113 0 0 0 -12.7077 21.029 -63.2031 5.91375e-06 46.992 9.32035e-06 0 0 0 114.207 -9.51909 -61.0417 -9.6614e-07 -35.0838 -6.85791e-06 0 0 0 -24.9269 -2.69266 -8.57497 -1.67139 0.755353 2.14164 0 0 0 -4.99295 0.441299 -3.77717 -1.95056 0.169135 -16.8945 0 0 0 
3.60911e-06 -1.88469e-05 -0.00237347 17.6766 -7.07294 -2.13399 -15.107 -0.649392 -14.7475 0 0 1.70755e-06 -13.064 22.191 -64.205 6.40522e-06 45.3389 8.68951e-06 3.41509e-06 3.41509e-06 -8.53774e-07 114.35 -9.83611 -61.0391 3.73996e-06 -35.0168 -4.7608e-06 0 0 0 -24.8805 -2.90592 -9.14113 0.969653 0.621094 2.07905 0 8.53774e-07 0 -5.13237 0.414973 -3.88141 -1.73654 0.241641 -17.2333 0 0 0 
